ModelForces
version=1
nRows=4
nColumns=155
inDegrees=no

This file contains the forces exerted on a model during a simulation.

A force is a generalized force, meaning that it can be either a force (N) or a torque (Nm).

Units are S.I. units (second, meters, Newtons, ...)
Angles are in degrees.

endheader
time	glut_med1_r	glut_med2_r	glut_med3_r	glut_min1_r	glut_min2_r	glut_min3_r	semimem_r	semiten_r	bifemlh_r	bifemsh_r	sar_r	add_long_r	add_brev_r	add_mag1_r	add_mag2_r	add_mag3_r	tfl_r	pect_r	grac_r	glut_max1_r	glut_max2_r	glut_max3_r	iliacus_r	psoas_r	quad_fem_r	gem_r	peri_r	rect_fem_r	vas_med_r	vas_int_r	vas_lat_r	med_gas_r	lat_gas_r	soleus_r	tib_post_r	flex_dig_r	flex_hal_r	tib_ant_r	per_brev_r	per_long_r	per_tert_r	ext_dig_r	ext_hal_r	glut_med1_l	glut_med2_l	glut_med3_l	glut_min1_l	glut_min2_l	glut_min3_l	semimem_l	semiten_l	bifemlh_l	bifemsh_l	sar_l	add_long_l	add_brev_l	add_mag1_l	add_mag2_l	add_mag3_l	tfl_l	pect_l	grac_l	glut_max1_l	glut_max2_l	glut_max3_l	iliacus_l	psoas_l	quad_fem_l	gem_l	peri_l	rect_fem_l	vas_med_l	vas_int_l	vas_lat_l	med_gas_l	lat_gas_l	soleus_l	tib_post_l	flex_dig_l	flex_hal_l	tib_ant_l	per_brev_l	per_long_l	per_tert_l	ext_dig_l	ext_hal_l	ercspn_r	ercspn_l	intobl_r	intobl_l	extobl_r	extobl_l	femur_lat_meniscii_r.femur_lat_r.force.X	femur_lat_meniscii_r.femur_lat_r.force.Y	femur_lat_meniscii_r.femur_lat_r.force.Z	femur_lat_meniscii_r.femur_lat_r.torque.X	femur_lat_meniscii_r.femur_lat_r.torque.Y	femur_lat_meniscii_r.femur_lat_r.torque.Z	femur_lat_meniscii_r.meniscus_lat_r.force.X	femur_lat_meniscii_r.meniscus_lat_r.force.Y	femur_lat_meniscii_r.meniscus_lat_r.force.Z	femur_lat_meniscii_r.meniscus_lat_r.torque.X	femur_lat_meniscii_r.meniscus_lat_r.torque.Y	femur_lat_meniscii_r.meniscus_lat_r.torque.Z	femur_med_meniscii_r.femur_med_r.force.X	femur_med_meniscii_r.femur_med_r.force.Y	femur_med_meniscii_r.femur_med_r.force.Z	femur_med_meniscii_r.femur_med_r.torque.X	femur_med_meniscii_r.femur_med_r.torque.Y	femur_med_meniscii_r.femur_med_r.torque.Z	femur_med_meniscii_r.meniscus_med_r.force.X	femur_med_meniscii_r.meniscus_med_r.force.Y	femur_med_meniscii_r.meniscus_med_r.force.Z	femur_med_meniscii_r.meniscus_med_r.torque.X	femur_med_meniscii_r.meniscus_med_r.torque.Y	femur_med_meniscii_r.meniscus_med_r.torque.Z	femur_med_tibia_r.tibia_upper_r.force.X	femur_med_tibia_r.tibia_upper_r.force.Y	femur_med_tibia_r.tibia_upper_r.force.Z	femur_med_tibia_r.tibia_upper_r.torque.X	femur_med_tibia_r.tibia_upper_r.torque.Y	femur_med_tibia_r.tibia_upper_r.torque.Z	femur_med_tibia_r.femur_med_r.force.X	femur_med_tibia_r.femur_med_r.force.Y	femur_med_tibia_r.femur_med_r.force.Z	femur_med_tibia_r.femur_med_r.torque.X	femur_med_tibia_r.femur_med_r.torque.Y	femur_med_tibia_r.femur_med_r.torque.Z	femur_lat_tibia_r.tibia_upper_r.force.X	femur_lat_tibia_r.tibia_upper_r.force.Y	femur_lat_tibia_r.tibia_upper_r.force.Z	femur_lat_tibia_r.tibia_upper_r.torque.X	femur_lat_tibia_r.tibia_upper_r.torque.Y	femur_lat_tibia_r.tibia_upper_r.torque.Z	femur_lat_tibia_r.femur_lat_r.force.X	femur_lat_tibia_r.femur_lat_r.force.Y	femur_lat_tibia_r.femur_lat_r.force.Z	femur_lat_tibia_r.femur_lat_r.torque.X	femur_lat_tibia_r.femur_lat_r.torque.Y	femur_lat_tibia_r.femur_lat_r.torque.Z	aACL_R	pACL_R	aPCL_R	pPCL_R	aMCL_R	mMCL_R	pMCL_R	aLCL_R	mLCL_R	pLCL_R	aPCL_L	pPCL_L	aMCL_L	aLCL_L
      0.16424256	     11.44509713	      8.35609992	      8.98752421	      3.85792965	      4.48401376	      4.85419959	      0.00000000	    167.05485455	    136.73619621	    294.14115456	    130.85847580	      8.31656004	      5.98774999	      3.35470769	      3.64387192	      6.14268955	      4.97776284	      3.25643477	    100.32457369	      5.39543772	      8.20786136	      6.16820294	     27.56643866	     18.55116554	      5.30520300	      3.65917217	      6.24502597	     53.63219510	     31.16243232	     33.28961586	     44.91981690	      0.00000000	      0.00000000	      0.00000000	      0.00000000	      0.00000000	      0.00000000	     34.00363430	      2.39739325	      2.96580465	     28.82319341	     42.15553769	     10.78865615	     11.44509713	      8.35609992	      8.98752421	      3.85792965	      4.48401376	      4.85419959	      0.00000000	      6.19274564	     12.22566063	     10.55933599	      2.20123300	      8.31656004	      5.98774999	      3.35470769	      3.64387192	      6.14268955	      5.43016638	      3.25643477	      2.27242496	      5.39543772	      8.20786136	      6.16820294	     27.56643866	     18.55116554	      5.30520300	      3.65917217	      6.24502597	     17.03261726	      0.00000000	      0.00000000	      0.00000000	     21.17670910	     10.00610241	     50.84538434	     51.00231669	      5.45526541	      4.88094332	     13.25283056	      7.08995831	     18.19968186	      2.86826407	      8.84200977	      2.77751883	     36.31358922	     36.31358922	     13.49410922	     13.49410922	     30.85619407	     30.85619407	     97.85615330	    180.14504803	     20.56826233	    -12.65090923	      2.36658777	     38.19935743	    -97.85615330	   -180.14504803	    -20.56826233	      4.98188984	     -2.93758710	      3.28802857	     23.55176263	     21.39563317	     11.83487420	     -4.28689769	     -0.53573578	      9.45061251	    -23.55176263	    -21.39563317	    -11.83487420	     -0.25099981	      0.25703130	      0.08379753	   -759.87036535	   -694.82360761	    221.68343912	    -16.07156083	     17.15217456	     -1.33136117	    759.87036535	    694.82360761	   -221.68343912	    102.73989525	    -13.75939304	    309.04078638	      0.00000000	      0.00000000	      0.00000000	      0.00000000	      0.00000000	      0.00000000	      0.00000000	      0.00000000	      0.00000000	      0.00000000	      0.00000000	      0.00000000	     -3.41964401	      0.00000000	    576.56084754	    374.63149882	      0.00000000	      0.00000000	      0.00000000	      0.00000000	      0.00000000	      0.00000000	      0.00000000	      0.00000000	      0.00000001	      0.00000000
      0.16444159	     11.43546547	      8.34904390	      8.97984422	      3.85480531	      4.48059487	      4.84983356	      0.00000000	    167.07234226	    136.78778725	    294.19984464	    130.84269824	      8.30945671	      5.98294594	      3.41379870	      3.64073921	      6.13701325	      4.97078952	      3.25377870	    100.30635858	      5.39086347	      8.20088711	      6.16288067	     27.55343444	     18.53633517	      5.30081311	      3.65702712	      6.24293404	     53.79912627	     31.15241625	     33.28139070	     44.91046605	      0.00000000	      0.00000000	      0.00000000	      0.00000000	      0.00000000	      0.00000000	     34.03511781	      2.38978353	      2.96498718	     23.65707211	     42.29344961	     10.82071670	     11.43546547	      8.34904390	      8.97984422	      3.85480531	      4.48059487	      4.84983356	      0.00000000	      6.18718591	     12.21491992	     10.55058839	      2.19945866	      8.30945671	      5.98294594	      3.41379870	      3.64073921	      6.13701325	      5.42666922	      3.25377870	      2.27056104	      5.39086347	      8.20088711	      6.16288067	     27.55343444	     18.53633517	      5.30081311	      3.65702712	      6.24293404	     17.01622928	      0.00000000	      0.00000000	      0.00000000	     21.17195819	     10.00315688	     50.80619787	     50.98154644	      5.45079961	      4.87689299	     13.24080100	      7.08314173	     18.18695980	      2.86597951	      8.83320868	      2.77488507	     36.28411473	     36.28411473	     13.48227691	     13.48227691	     30.84546564	     30.84546564	     98.25382545	    180.75400911	     20.43000736	    -12.60680721	      2.37419034	     38.34911283	    -98.25382545	   -180.75400911	    -20.43000736	      4.99205167	     -2.94401240	      3.31394041	     23.60413521	     21.24604612	     11.73349501	     -4.24864554	     -0.53671414	      9.47126817	    -23.60413521	    -21.24604612	    -11.73349501	     -0.25061028	      0.25950414	      0.08178137	   -762.02607575	   -694.38377834	    221.89135851	    -16.05040120	     17.19412028	     -1.32057018	    762.02607575	    694.38377834	   -221.89135851	    102.80701516	    -13.79444296	    309.90168538	      0.00000000	      0.00000000	      0.00000000	      0.00000000	      0.00000000	      0.00000000	      0.00000000	      0.00000000	      0.00000000	      0.00000000	      0.00000000	      0.00000000	     -3.39080074	      0.00000000	    578.55978254	    375.53998603	      0.00000000	      0.00000000	      0.00000000	      0.00000000	      0.00000000	      0.00000000	      0.00000000	      0.00000000	      0.00000001	      0.00000000
      0.16476929	     11.41963896	      8.33746704	      8.96724372	      3.84967901	      4.47498546	      4.84266984	      0.00000000	    167.09589316	    136.88069530	    294.31882762	    130.81413175	      8.29780234	      5.97506356	      3.50096139	      3.63559935	      6.12770004	      4.95908172	      3.24942075	    100.27359206	      5.38335860	      8.18944463	      6.15414858	     27.53209944	     18.51200435	      5.29361049	      3.65350801	      6.23945474	     54.07771247	     31.14141336	     33.27271266	     44.89911160	      0.00000000	      0.00000000	      0.00000000	      0.00000000	      0.00000000	      0.00000000	     34.08677758	      2.37711608	      2.96344885	     24.02810853	     42.51100041	     10.87165887	     11.41963896	      8.33746704	      8.96724372	      3.84967901	      4.47498546	      4.84266984	      0.00000000	      6.17806417	     12.19727166	     10.53623598	      2.19654737	      8.29780234	      5.97506356	      3.50096139	      3.63559935	      6.12770004	      5.42093106	      3.24942075	      2.26750284	      5.38335860	      8.18944463	      6.15414858	     27.53209944	     18.51200435	      5.29361049	      3.65350801	      6.23945474	     16.98933602	      0.00000000	      0.00000000	      0.00000000	     21.16402952	      9.99826075	     50.74170059	     50.94743628	      5.44342028	      4.87018690	     13.22104879	      7.07195104	     18.16605287	      2.86223141	      8.81886862	      2.77060484	     36.23575418	     36.23575418	     13.46286389	     13.46286389	     30.82786460	     30.82786460	    100.67377417	    178.63422470	     19.67170940	    -12.23361513	      2.43197561	     39.36353289	   -100.67377417	   -178.63422470	    -19.67170940	      4.90842887	     -2.99160185	      3.20635924	     24.04142357	     21.18301698	     11.56170512	     -4.18041874	     -0.54767007	      9.64852012	    -24.04142357	    -21.18301698	    -11.56170512	     -0.25304337	      0.27249998	      0.07458490	   -766.25587775	   -693.85363324	    222.09983080	    -16.01270732	     17.26605211	     -1.31324156	    766.25587775	    693.85363324	   -222.09983080	    102.86334491	    -13.85884793	    311.59674015	      0.00000000	      0.00000000	      0.00000000	      0.00000000	      0.00000000	      0.00000000	      0.00000000	      0.00000000	      0.00000000	      0.00000000	      0.00000000	      0.00000000	     -3.34507533	      0.00000000	    581.86531363	    377.11163362	      0.00000000	      0.00000000	      0.00000000	      0.00000000	      0.00000000	      0.00000000	      0.00000000	      0.00000000	      0.00000001	      0.00000000
      0.16532773	     11.39276245	      8.31785555	      8.94589849	      3.84099442	      4.46548292	      4.83053333	      0.00000000	    167.10886408	    137.04440878	    294.49568224	    130.74933660	      8.27805985	      5.96170961	      3.62479140	      3.62689238	      6.11192309	      4.93855622	      3.24203797	    100.20255509	      5.37064554	      8.17006131	      6.13935676	     27.49596053	     18.47079143	      5.28140876	      3.64754740	      6.23342698	     54.54924925	     31.10313153	     33.24312842	     44.86487082	      0.00000000	      0.00000000	      0.00000000	      0.00000000	      0.00000000	      0.00000000	     34.17514954	      2.35483733	      2.95995067	     58.80253584	     42.86315925	     10.95246503	     11.39276245	      8.31785555	      8.94589849	      3.84099442	      4.46548292	      4.83053333	      0.00000000	      6.16261219	     12.16730224	     10.51192215	      2.19161525	      8.27805985	      5.96170961	      3.62479140	      3.62689238	      6.11192309	      5.41120948	      3.24203797	      2.26232196	      5.37064554	      8.17006131	      6.13935676	     27.49596053	     18.47079143	      5.28140876	      3.64754740	      6.23342698	     16.94376299	      0.00000000	      0.00000000	      0.00000000	     21.15021637	      9.98978596	     50.63186526	     50.88956185	      5.43076816	      4.85865085	     13.18754536	      7.05297487	     18.13054076	      2.85588257	      8.79486143	      2.76347083	     36.15382568	     36.15382568	     13.42997867	     13.42997867	     30.79805121	     30.79805121	    104.75717500	    173.39622594	     17.98376191	    -11.37260367	      2.52746068	     41.09972451	   -104.75717500	   -173.39622594	    -17.98376191	      4.69135778	     -3.06127441	      2.96612413	     24.17168371	     20.92693432	     11.40467147	     -4.12280567	     -0.54825214	      9.69837937	    -24.17168371	    -20.92693432	    -11.40467147	     -0.25116772	      0.27473683	      0.07394406	   -771.99710372	   -694.08527010	    223.41122687	    -15.99227839	     17.39576489	     -1.22438652	    771.99710372	    694.08527010	   -223.41122687	    103.37432748	    -13.95370157	    313.86657215	      0.00000000	      0.00000000	      0.00000000	      0.00000000	      0.00000000	      0.00000000	      0.00000000	      0.00000000	      0.00000000	      0.00000000	      0.00000000	      0.00000000	     -3.60314148	      0.00000000	    587.66047222	    380.28703168	      0.00000000	      0.00000000	      0.00000000	      0.00000000	      0.00000000	      0.00000000	      0.00000000	      0.00000000	      0.00000001	      0.00000000
